<svg width="144" height="144" viewBox="0 0 144 144" fill="none" xmlns="http://www.w3.org/2000/svg">
<g clip-path="url(#clip0_614_269)">
<path fill-rule="evenodd" clip-rule="evenodd" d="M139.14 80.0462L64.1433 4.90522C57.4833 -1.75478 46.4403 -1.52078 39.4833 5.45422L38.6823 6.25522L38.3763 5.94922C30.6813 -1.75478 17.8833 -1.43978 9.79228 6.66022L7.49728 8.96422C-0.593724 17.0552 -0.899724 29.8712 6.79528 37.5752L7.11028 37.8902L5.62528 39.3842C-1.33172 46.3412 -1.58372 57.4022 5.08528 64.0802L80.0823 139.221C86.7423 145.89 97.8033 145.647 104.742 138.681L138.609 104.751C145.575 97.7762 145.809 86.7242 139.14 80.0462ZM30.8973 46.5122C23.1033 46.5122 16.7943 39.9062 16.7763 31.7432C16.7763 23.5892 23.1033 16.9832 30.8973 16.9832C38.6913 16.9832 44.9733 23.5982 45.0003 31.7432C44.9733 39.9062 38.6733 46.5122 30.8973 46.5122ZM111.906 117.693L102.15 107.928C96.2823 112.095 88.9293 113.409 82.4943 111.186C81.7605 110.941 81.0845 110.549 80.5073 110.033C79.9302 109.518 79.464 108.891 79.1373 108.189C78.7947 107.468 78.602 106.684 78.5711 105.886C78.5402 105.087 78.6715 104.291 78.9573 103.545C79.5126 102.054 80.6249 100.836 82.0601 100.147C83.4953 99.4591 85.1415 99.3544 86.6523 99.8552C88.7943 100.593 91.2423 100.278 93.5013 99.2432L82.2243 87.9212C73.6473 94.0592 62.2533 93.8792 55.2963 86.9402C48.2943 79.9472 48.1413 68.5172 54.3603 59.9582L44.8023 50.3912L50.4633 44.7302L60.0843 54.3152C66.0063 50.1662 73.3683 48.8522 79.8123 51.0842C80.555 51.3427 81.238 51.7482 81.8204 52.2765C82.4029 52.8049 82.8728 53.4453 83.2021 54.1594C83.5315 54.8735 83.7134 55.6467 83.7372 56.4328C83.7609 57.2188 83.6259 58.0015 83.3403 58.7342C82.7703 60.2186 81.6527 61.4277 80.2177 62.1126C78.7827 62.7974 77.1397 62.9057 75.6273 62.4152C73.4853 61.6682 71.0553 61.9742 68.8053 62.9822L80.1633 74.2952C88.6863 68.3102 99.9453 68.5532 106.848 75.4472C113.751 82.3502 114.021 93.5642 108.045 102.042L117.765 111.726L111.906 117.693Z" fill="#0F1910"/>
<path fill-rule="evenodd" clip-rule="evenodd" d="M64.1161 78.4985C66.5281 80.9015 70.3981 81.1535 73.8451 79.4615L63.1531 68.7245C61.4521 72.1895 61.6951 76.0775 64.1161 78.4985Z" fill="#0F1910"/>
<path fill-rule="evenodd" clip-rule="evenodd" d="M98.3163 84.1595C95.9943 81.8285 92.3043 81.5315 88.9473 83.0435L99.4413 93.5015C100.944 90.1625 100.638 86.4725 98.3163 84.1595Z" fill="#0F1910"/>
</g>
<defs>
<clipPath id="clip0_614_269">
<rect width="144" height="144" fill="white"/>
</clipPath>
</defs>
</svg>
