<svg width="204" height="202" viewBox="0 0 204 202" fill="none" xmlns="http://www.w3.org/2000/svg">
<path d="M190.74 104.851L171.615 60.6631C171.127 59.5222 170.311 58.5486 169.268 57.8639C168.225 57.1792 167.001 56.8135 165.75 56.8125H146.625V44.1875C146.625 42.5133 145.953 40.9077 144.758 39.7239C143.562 38.5401 141.941 37.875 140.25 37.875H19.125C17.4342 37.875 15.8127 38.5401 14.6172 39.7239C13.4216 40.9077 12.75 42.5133 12.75 44.1875V151.5C12.75 153.174 13.4216 154.78 14.6172 155.964C15.8127 157.147 17.4342 157.812 19.125 157.812H32.7675C34.2355 163.162 37.4404 167.884 41.8876 171.25C46.3347 174.617 51.7771 176.441 57.375 176.441C62.9729 176.441 68.4153 174.617 72.8624 171.25C77.3096 167.884 80.5145 163.162 81.9825 157.812H122.017C123.486 163.162 126.69 167.884 131.138 171.25C135.585 174.617 141.027 176.441 146.625 176.441C152.223 176.441 157.665 174.617 162.112 171.25C166.56 167.884 169.764 163.162 171.232 157.812H184.875C186.566 157.812 188.187 157.147 189.383 155.964C190.578 154.78 191.25 153.174 191.25 151.5V107.312C191.248 106.466 191.075 105.629 190.74 104.851ZM146.625 69.4375H161.542L175.185 101H146.625V69.4375ZM57.375 164.125C54.8533 164.125 52.3882 163.385 50.2915 161.997C48.1948 160.61 46.5606 158.638 45.5955 156.331C44.6305 154.024 44.378 151.486 44.87 149.037C45.3619 146.588 46.5763 144.338 48.3594 142.573C50.1425 140.807 52.4143 139.605 54.8876 139.118C57.3609 138.63 59.9245 138.88 62.2542 139.836C64.584 140.792 66.5752 142.41 67.9762 144.486C69.3772 146.562 70.125 149.003 70.125 151.5C70.125 154.848 68.7817 158.06 66.3906 160.427C63.9995 162.795 60.7565 164.125 57.375 164.125ZM122.017 145.188H81.9825C80.5145 139.838 77.3096 135.116 72.8624 131.75C68.4153 128.383 62.9729 126.559 57.375 126.559C51.7771 126.559 46.3347 128.383 41.8876 131.75C37.4404 135.116 34.2355 139.838 32.7675 145.188H25.5V50.5H133.875V129.785C130.972 131.453 128.43 133.673 126.396 136.316C124.361 138.959 122.873 141.974 122.017 145.188ZM146.625 164.125C144.103 164.125 141.638 163.385 139.541 161.997C137.445 160.61 135.811 158.638 134.846 156.331C133.881 154.024 133.628 151.486 134.12 149.037C134.612 146.588 135.826 144.338 137.609 142.573C139.393 140.807 141.664 139.605 144.138 139.118C146.611 138.63 149.174 138.88 151.504 139.836C153.834 140.792 155.825 142.41 157.226 144.486C158.627 146.562 159.375 149.003 159.375 151.5C159.375 154.848 158.032 158.06 155.641 160.427C153.25 162.795 150.007 164.125 146.625 164.125ZM178.5 145.188H171.232C169.823 139.781 166.643 134.99 162.19 131.563C157.738 128.137 152.264 126.268 146.625 126.25V113.625H178.5V145.188Z" fill="#0F1910"/>
</svg>
