<svg width="59" height="59" viewBox="0 0 59 59" fill="none" xmlns="http://www.w3.org/2000/svg">
<path d="M55.165 30.6247L49.6338 17.7184C49.4926 17.3852 49.2565 17.1008 48.9549 16.9008C48.6532 16.7008 48.2994 16.594 47.9375 16.5938H42.4062V12.9062C42.4062 12.4173 42.212 11.9483 41.8662 11.6025C41.5205 11.2568 41.0515 11.0625 40.5625 11.0625H5.53125C5.04226 11.0625 4.57329 11.2568 4.22752 11.6025C3.88175 11.9483 3.6875 12.4173 3.6875 12.9062V44.25C3.6875 44.739 3.88175 45.208 4.22752 45.5537C4.57329 45.8995 5.04226 46.0938 5.53125 46.0938H9.47687C9.90146 47.6561 10.8283 49.0353 12.1145 50.0186C13.4007 51.0019 14.9747 51.5347 16.5938 51.5347C18.2128 51.5347 19.7868 51.0019 21.073 50.0186C22.3592 49.0353 23.286 47.6561 23.7106 46.0938H35.2894C35.714 47.6561 36.6408 49.0353 37.927 50.0186C39.2132 51.0019 40.7872 51.5347 42.4062 51.5347C44.0253 51.5347 45.5993 51.0019 46.8855 50.0186C48.1717 49.0353 49.0985 47.6561 49.5231 46.0938H53.4688C53.9577 46.0938 54.4267 45.8995 54.7725 45.5537C55.1182 45.208 55.3125 44.739 55.3125 44.25V31.3438C55.312 31.0966 55.2619 30.8521 55.165 30.6247ZM42.4062 20.2812H46.7206L50.6662 29.5H42.4062V20.2812ZM16.5938 47.9375C15.8644 47.9375 15.1515 47.7212 14.5451 47.316C13.9387 46.9109 13.466 46.3349 13.1869 45.6611C12.9078 44.9873 12.8348 44.2459 12.9771 43.5306C13.1194 42.8153 13.4706 42.1583 13.9863 41.6425C14.502 41.1268 15.159 40.7756 15.8744 40.6334C16.5897 40.4911 17.3311 40.5641 18.0049 40.8432C18.6787 41.1223 19.2546 41.5949 19.6598 42.2013C20.065 42.8077 20.2812 43.5207 20.2812 44.25C20.2812 45.228 19.8927 46.1659 19.2012 46.8575C18.5097 47.549 17.5717 47.9375 16.5938 47.9375ZM35.2894 42.4062H23.7106C23.286 40.8439 22.3592 39.4647 21.073 38.4814C19.7868 37.4981 18.2128 36.9653 16.5938 36.9653C14.9747 36.9653 13.4007 37.4981 12.1145 38.4814C10.8283 39.4647 9.90146 40.8439 9.47687 42.4062H7.375V14.75H38.7188V37.9075C37.8792 38.3948 37.1441 39.043 36.5556 39.815C35.9671 40.587 35.5368 41.4676 35.2894 42.4062ZM42.4062 47.9375C41.6769 47.9375 40.964 47.7212 40.3576 47.316C39.7512 46.9109 39.2785 46.3349 38.9994 45.6611C38.7203 44.9873 38.6473 44.2459 38.7896 43.5306C38.9319 42.8153 39.2831 42.1583 39.7988 41.6425C40.3145 41.1268 40.9715 40.7756 41.6869 40.6334C42.4022 40.4911 43.1436 40.5641 43.8174 40.8432C44.4912 41.1223 45.0671 41.5949 45.4723 42.2013C45.8775 42.8077 46.0938 43.5207 46.0938 44.25C46.0938 45.228 45.7052 46.1659 45.0137 46.8575C44.3222 47.549 43.3842 47.9375 42.4062 47.9375ZM51.625 42.4062H49.5231C49.1154 40.8271 48.1957 39.4277 46.908 38.4269C45.6203 37.426 44.0372 36.8803 42.4062 36.875V33.1875H51.625V42.4062Z" fill="#0F1910"/>
</svg>
