<svg width="26" height="23" viewBox="0 0 26 23" fill="none" xmlns="http://www.w3.org/2000/svg">
<path d="M20.4286 7.34679V5.99384C20.4286 3.00973 17.0961 0.582031 13 0.582031C8.90384 0.582031 5.57143 3.00973 5.57143 5.99384V7.34679H0V18.8469C0 20.7149 2.07867 22.2292 4.64286 22.2292H21.3571C23.9213 22.2292 26 20.7149 26 18.8469V7.34679H20.4286ZM9.28571 5.99384C9.28571 4.50178 10.9519 3.28793 13 3.28793C15.0481 3.28793 16.7143 4.50178 16.7143 5.99384V7.34679H9.28571V5.99384ZM18.5714 11.0674C17.8022 11.0674 17.1786 10.6131 17.1786 10.0527C17.1786 9.49227 17.8022 9.03798 18.5714 9.03798C19.3407 9.03798 19.9643 9.49227 19.9643 10.0527C19.9643 10.6131 19.3407 11.0674 18.5714 11.0674ZM7.42857 11.0674C6.65931 11.0674 6.03571 10.6131 6.03571 10.0527C6.03571 9.49227 6.65931 9.03798 7.42857 9.03798C8.19783 9.03798 8.82143 9.49227 8.82143 10.0527C8.82143 10.6131 8.19783 11.0674 7.42857 11.0674Z" fill="#D3D3D3"/>
</svg>
