<svg width="174" height="174" viewBox="0 0 174 174" fill="none" xmlns="http://www.w3.org/2000/svg">
<path d="M152.25 141.375V174C151.457 173.547 150.324 172.867 148.852 171.961C147.379 171.055 144.32 168.562 139.676 164.484C135.031 160.406 130.387 155.648 125.742 150.211C120.191 151.57 114.527 152.25 108.75 152.25C100.48 152.25 92.8623 151.4 85.8955 149.701C78.9287 148.002 73.2363 145.906 68.8184 143.414C64.4004 140.922 60.6338 138.146 57.5186 135.088C54.4033 132.029 52.1943 129.197 50.8916 126.592C49.5889 123.986 48.9375 121.664 48.9375 119.625H65.25C79.8633 119.625 92.8623 117.076 104.247 111.979C115.632 106.881 124.666 99.3477 131.35 89.3789C138.033 79.4102 141.375 67.7422 141.375 54.375C163.125 65.3633 174 80.7695 174 100.594C174 116.793 166.75 130.387 152.25 141.375ZM65.25 108.75C59.4727 108.75 53.8086 108.07 48.2578 106.711C43.6133 112.148 39.082 116.85 34.6641 120.814C30.2461 124.779 26.9609 127.385 24.8086 128.631L21.75 130.5V97.875C7.25 86.8867 0 73.293 0 57.0938C0 46.7852 2.91699 37.2412 8.75098 28.4619C14.585 19.6826 22.5146 12.7441 32.54 7.64648C42.5654 2.54883 53.4971 0 65.335 0C77.1729 0 88.1045 2.54883 98.1299 7.64648C108.155 12.7441 116.057 19.6826 121.834 28.4619C127.611 37.2412 130.5 46.7852 130.5 57.0938C130.5 67.4023 127.555 76.5215 121.664 84.4512C115.773 92.3809 107.9 98.4131 98.0449 102.548C88.1895 106.683 77.2578 108.75 65.25 108.75ZM65.25 10.875C55.3945 10.875 46.3037 12.8008 37.9775 16.6523C29.6514 20.5039 23.0527 25.7715 18.1816 32.4551C13.3105 39.1387 10.875 46.417 10.875 54.29C10.875 62.1631 13.3105 69.4414 18.1816 76.125C23.0527 82.8086 29.6514 88.1045 37.9775 92.0127C46.3037 95.9209 55.3945 97.875 65.25 97.875C75.1055 97.875 84.1963 95.9209 92.5225 92.0127C100.849 88.1045 107.447 82.8086 112.318 76.125C117.189 69.4414 119.625 62.1631 119.625 54.29C119.625 46.417 117.189 39.1387 112.318 32.4551C107.447 25.7715 100.849 20.5039 92.5225 16.6523C84.1963 12.8008 75.1055 10.875 65.25 10.875Z" fill="#0F1910"/>
</svg>
