<svg width="35" height="34" viewBox="0 0 35 34" fill="none" xmlns="http://www.w3.org/2000/svg">
<path d="M17.6218 11.0171C14.4317 11.0171 11.8283 13.4941 11.8283 16.5292C11.8283 19.5644 14.4317 22.0413 17.6218 22.0413C20.8119 22.0413 23.4153 19.5644 23.4153 16.5292C23.4153 13.4941 20.8119 11.0171 17.6218 11.0171ZM34.9979 16.5292C34.9979 14.2467 35.0196 11.9848 34.8849 9.70632C34.7502 7.05985 34.1156 4.71111 32.0816 2.77588C30.0432 0.83652 27.5789 0.236931 24.7974 0.108743C22.3983 -0.0194456 20.0209 0.00122996 17.6261 0.00122996C15.227 0.00122996 12.8496 -0.0194456 10.4549 0.108743C7.67332 0.236931 5.20467 0.840656 3.17065 2.77588C1.13228 4.71525 0.502078 7.05985 0.367346 9.70632C0.232613 11.9889 0.254345 14.2508 0.254345 16.5292C0.254345 18.8077 0.232613 21.0737 0.367346 23.3522C0.502078 25.9986 1.13662 28.3474 3.17065 30.2826C5.20902 32.2219 7.67332 32.8215 10.4549 32.9497C12.854 33.0779 15.2314 33.0572 17.6261 33.0572C20.0252 33.0572 22.4026 33.0779 24.7974 32.9497C27.5789 32.8215 30.0476 32.2178 32.0816 30.2826C34.12 28.3432 34.7502 25.9986 34.8849 23.3522C35.024 21.0737 34.9979 18.8118 34.9979 16.5292ZM17.6218 25.0103C12.6888 25.0103 8.70771 21.2226 8.70771 16.5292C8.70771 11.8359 12.6888 8.04814 17.6218 8.04814C22.5547 8.04814 26.5358 11.8359 26.5358 16.5292C26.5358 21.2226 22.5547 25.0103 17.6218 25.0103ZM26.9009 9.6815C25.7492 9.6815 24.8191 8.79659 24.8191 7.70079C24.8191 6.60499 25.7492 5.72008 26.9009 5.72008C28.0527 5.72008 28.9828 6.60499 28.9828 7.70079C28.9831 7.96099 28.9295 8.21871 28.825 8.45916C28.7205 8.69962 28.5671 8.9181 28.3738 9.1021C28.1804 9.28609 27.9507 9.43197 27.698 9.5314C27.4453 9.63082 27.1744 9.68183 26.9009 9.6815Z" fill="white"/>
</svg>
