<svg width="123" height="36" viewBox="0 0 123 36" fill="none" xmlns="http://www.w3.org/2000/svg">
<path d="M0.9 26.43L3.18 25.86V1.54L0.9 0.969998V0.399998H11.73V0.969998L9.45 1.54V26.05H17.62C17.62 24.454 18.0253 22.972 18.836 21.604C19.1907 21.0213 19.6087 20.54 20.09 20.16H21.23V27H0.9V26.43ZM29.4134 26.43L31.6934 25.86V9.14L29.4134 8.57V8H34.3534C36.6334 8 37.7734 9.14 37.7734 11.42V25.86L40.0534 26.43V27H29.4134V26.43ZM34.3534 5.72C33.5934 5.72 32.96 5.46667 32.4534 4.96C31.9467 4.45333 31.6934 3.82 31.6934 3.06C31.6934 2.3 31.9467 1.66667 32.4534 1.16C32.96 0.653332 33.5934 0.399998 34.3534 0.399998C35.1134 0.399998 35.7467 0.653332 36.2534 1.16C36.76 1.66667 37.0134 2.3 37.0134 3.06C37.0134 3.82 36.76 4.45333 36.2534 4.96C35.7467 5.46667 35.1134 5.72 34.3534 5.72ZM56.9574 35.17C54.7028 35.17 52.8661 34.9673 51.4474 34.562C50.0288 34.1567 49.0028 33.6373 48.3694 33.004C47.7614 32.3707 47.4574 31.6993 47.4574 30.99C47.4574 30.1287 47.7108 29.432 48.2174 28.9C48.7494 28.3933 49.4461 28.14 50.3074 28.14C50.5101 28.14 50.8774 28.178 51.4094 28.254L51.8274 28.33V33.65C52.1314 33.7513 52.6128 33.878 53.2714 34.03C54.4368 34.2833 55.5388 34.41 56.5774 34.41C59.6681 34.41 61.9228 33.9667 63.3414 33.08C64.7854 32.2187 65.5074 31.142 65.5074 29.85C65.5074 28.2033 63.9874 27.38 60.9474 27.38H53.7274C51.8274 27.38 50.3708 26.9873 49.3574 26.202C48.3441 25.4167 47.8374 24.416 47.8374 23.2C47.8374 21.984 48.4328 20.9073 49.6234 19.97C50.1048 19.6153 50.7128 19.2987 51.4474 19.02C50.5101 18.4373 49.8261 17.7533 49.3954 16.968C48.9901 16.1573 48.7874 15.1947 48.7874 14.08C48.7874 12.2053 49.4968 10.698 50.9154 9.558C52.3341 8.39267 54.4114 7.81 57.1474 7.81C58.3381 7.81 59.4274 7.93667 60.4154 8.19C61.4288 8.418 62.2394 8.73467 62.8474 9.14C63.0501 8.70933 63.3161 8.32933 63.6454 8C64.4054 7.24 65.3428 6.86 66.4574 6.86C67.3188 6.86 68.0408 7.164 68.6234 7.772C69.2061 8.35467 69.4974 9.12733 69.4974 10.09C69.4974 10.8247 69.2948 11.42 68.8894 11.876C68.5094 12.332 68.0154 12.56 67.4074 12.56C67.1288 12.56 66.8121 12.5347 66.4574 12.484L66.0774 12.37V7.81C65.4188 7.81 64.7981 8.12667 64.2154 8.76C63.9874 8.988 63.7848 9.30467 63.6074 9.71C64.8741 10.8247 65.5074 12.2813 65.5074 14.08C65.5074 15.9547 64.7981 17.4747 63.3794 18.64C61.9608 19.78 59.8834 20.35 57.1474 20.35C55.3234 20.35 53.6768 20.0333 52.2074 19.4L51.4474 19.78C51.1941 19.932 51.0041 20.084 50.8774 20.236C50.7508 20.3627 50.6874 20.5273 50.6874 20.73C50.6874 21.1607 50.9028 21.49 51.3334 21.718C51.7894 21.946 52.5874 22.06 53.7274 22.06H60.9474C62.8474 22.06 64.3294 22.6173 65.3934 23.732C66.4828 24.8213 67.0274 26.354 67.0274 28.33C67.0274 30.3567 66.1788 32.0033 64.4814 33.27C62.8094 34.5367 60.3014 35.17 56.9574 35.17ZM57.1474 19.59C57.9834 19.59 58.6294 19.1847 59.0854 18.374C59.5668 17.5633 59.8074 16.132 59.8074 14.08C59.8074 12.028 59.5668 10.5967 59.0854 9.786C58.6294 8.97533 57.9834 8.57 57.1474 8.57C56.3114 8.57 55.6528 8.97533 55.1714 9.786C54.7154 10.5967 54.4874 12.028 54.4874 14.08C54.4874 16.132 54.7154 17.5633 55.1714 18.374C55.6528 19.1847 56.3114 19.59 57.1474 19.59ZM76.7352 26.43L79.0152 25.86V1.54L76.7352 0.969998V0.399998H81.6752C83.9552 0.399998 85.0952 1.54 85.0952 3.82V9.9C85.4752 9.39333 85.8679 8.988 86.2732 8.684C87.3626 7.848 88.6166 7.43 90.0352 7.43C91.4539 7.43 92.7206 7.734 93.8352 8.342C94.9752 8.92467 95.8619 9.69733 96.4952 10.66C97.1286 11.6227 97.4452 12.636 97.4452 13.7V25.86L99.7252 26.43V27H94.7852C92.5052 27 91.3652 25.86 91.3652 23.58V13.7C91.3652 12.104 91.0739 10.888 90.4912 10.052C89.9339 9.19067 89.2752 8.76 88.5152 8.76C87.5526 8.76 86.6912 9.26667 85.9312 10.28C85.6019 10.7107 85.3232 11.2173 85.0952 11.8V25.86L87.3752 26.43V27H76.7352V26.43ZM117.587 27.57C115.915 27.57 114.458 27.266 113.217 26.658C112.001 26.05 111.063 25.214 110.405 24.15C109.746 23.086 109.417 21.8827 109.417 20.54V8.95H106.757V8H109.417V6.1C109.417 3.82 110.557 2.68 112.837 2.68H115.497V8H120.817V8.95H115.497V20.54C115.497 22.8707 115.737 24.4667 116.219 25.328C116.7 26.1893 117.409 26.62 118.347 26.62C119.259 26.62 120.057 26.1767 120.741 25.29C121.425 24.4033 121.767 23.2 121.767 21.68H122.717C122.717 23.5547 122.248 25.0113 121.311 26.05C120.373 27.0633 119.132 27.57 117.587 27.57Z" fill="white"/>
</svg>
