<svg width="35" height="35" viewBox="0 0 35 35" fill="none" xmlns="http://www.w3.org/2000/svg">
<path d="M32.7076 6.0855L22.5312 3.23901L12.3252 6.11394L2.83411 3.42153C2.63073 3.36383 2.41675 3.35408 2.20896 3.39304C2.00118 3.432 1.80526 3.51862 1.63661 3.64608C1.46795 3.77355 1.33115 3.93838 1.23696 4.12765C1.14277 4.31691 1.09375 4.52543 1.09375 4.73684V28.02C1.09478 28.3768 1.21165 28.7236 1.42676 29.0083C1.64187 29.2929 1.9436 29.5 2.28655 29.5984L12.3229 32.4456L22.5334 29.5694L32.1709 32.2652C32.3741 32.322 32.5877 32.3311 32.7949 32.2916C33.0022 32.2521 33.1975 32.1652 33.3656 32.0376C33.5337 31.9101 33.6699 31.7453 33.7637 31.5563C33.8575 31.3673 33.9063 31.1592 33.9062 30.9482V7.66549C33.9053 7.30763 33.7879 6.95981 33.5716 6.67471C33.3553 6.38961 33.052 6.18276 32.7076 6.0855ZM11.1426 29.8366L3.28125 27.6064V5.82218L11.1426 8.05233V29.8366ZM21.4385 27.6048L13.3301 29.8888V8.10347L21.4385 5.81944V27.6048ZM31.7188 29.8669L23.626 27.6035V5.81664L31.7188 8.08009V29.8669Z" fill="white"/>
</svg>
