<svg width="25" height="25" viewBox="0 0 25 25" fill="none" xmlns="http://www.w3.org/2000/svg">
<path d="M10.9167 21.25C13.2094 21.2495 15.436 20.482 17.242 19.0697L22.9202 24.7478L24.7466 22.9214L19.0684 17.2432C20.4815 15.4371 21.2495 13.2099 21.25 10.9167C21.25 5.21912 16.6143 0.583328 10.9167 0.583328C5.21917 0.583328 0.583374 5.21912 0.583374 10.9167C0.583374 16.6142 5.21917 21.25 10.9167 21.25ZM10.9167 3.16666C15.1908 3.16666 18.6667 6.64254 18.6667 10.9167C18.6667 15.1908 15.1908 18.6667 10.9167 18.6667C6.64258 18.6667 3.16671 15.1908 3.16671 10.9167C3.16671 6.64254 6.64258 3.16666 10.9167 3.16666Z" fill="white"/>
</svg>
