<svg width="39" height="30" viewBox="0 0 39 30" fill="none" xmlns="http://www.w3.org/2000/svg">
<path d="M38.1615 3.50362C36.767 4.11105 35.2876 4.50973 33.7728 4.68638C35.3672 3.74801 36.5607 2.27322 37.1316 0.535908C35.6301 1.41163 33.988 2.03039 32.2754 2.36577C31.1233 1.16261 29.5995 0.365881 27.9399 0.098847C26.2803 -0.168187 24.5773 0.109359 23.0945 0.888551C21.6117 1.66774 20.4316 2.90514 19.737 4.4093C19.0423 5.91345 18.8717 7.60052 19.2516 9.20947C16.2128 9.0598 13.2399 8.28416 10.5261 6.93289C7.81223 5.58163 5.41808 3.68495 3.49905 1.366C2.52338 3.0192 2.22551 4.97531 2.66602 6.83651C3.10652 8.69772 4.25232 10.3243 5.87041 11.3854C4.65658 11.3461 3.46975 11.0233 2.40823 10.4438V10.537C2.41159 12.2663 3.02221 13.9415 4.13707 15.2801C5.25194 16.6187 6.8028 17.5386 8.52802 17.8847C7.87137 18.0588 7.19422 18.1472 6.51406 18.1475C6.03119 18.1476 5.54951 18.1008 5.076 18.0078C5.56359 19.4993 6.51382 20.8037 7.7937 21.7386C9.07357 22.6734 10.619 23.1918 12.2138 23.2213C9.50755 25.3046 6.16689 26.4341 2.72836 26.4285C2.11666 26.4302 1.50534 26.398 0.897339 26.332C4.39087 28.5407 8.45875 29.7131 12.6135 29.709C15.4747 29.7284 18.3113 29.1893 20.9585 28.123C23.6057 27.0566 26.0108 25.4843 28.034 23.4973C30.0572 21.5103 31.6582 19.1482 32.7439 16.5484C33.8297 13.9486 34.3787 11.1627 34.3588 8.35277L34.3334 7.38127C35.838 6.32701 37.135 5.01313 38.1615 3.50362Z" fill="white"/>
</svg>
